ffmpeg started on 2016-12-08 at 15:52:44
Report written to "Output/x264/results/ffmpeg/crowd_run_2160p50veryslow4000k.log"
Command line:
Tools/ffmpeg/ffmpeg -benchmark -y -i Input/y4m/crowd_run_2160p50.y4m -c:v libx264 -preset veryslow -b:v 4000k -an Output/x264/encoded/crowd_run_2160p50veryslow4000k.mkv
ffmpeg version N-82227-gdb23fde Copyright (c) 2000-2016 the FFmpeg developers
  built with gcc 5.4.0 (Ubuntu 5.4.0-6ubuntu1~16.04.2) 20160609
  configuration: --prefix=/home/jaroslav/ffmpeg_build --pkg-config-flags=--static --extra-cflags=-I/home/jaroslav/ffmpeg_build/include --extra-ldflags=-L/home/jaroslav/ffmpeg_build/lib --bindir=/home/jaroslav/bin --enable-gpl --enable-libass --enable-libfdk-aac --enable-libfreetype --enable-libmp3lame --enable-libopus --enable-libtheora --enable-libvorbis --enable-libvpx --enable-libx264 --enable-libx265 --enable-nvenc --enable-libmfx --enable-libxvid --enable-libgsm --enable-libopencore-amrnb --enable-version3 --enable-nonfree
  libavutil      55. 35.100 / 55. 35.100
  libavcodec     57. 66.101 / 57. 66.101
  libavformat    57. 57.100 / 57. 57.100
  libavdevice    57.  2.100 / 57.  2.100
  libavfilter     6. 66.100 /  6. 66.100
  libswscale      4.  3.100 /  4.  3.100
  libswresample   2.  4.100 /  2.  4.100
  libpostproc    54.  2.100 / 54.  2.100
Input #0, yuv4mpegpipe, from 'Input/y4m/crowd_run_2160p50.y4m':
  Duration: 00:00:10.00, start: 0.000000, bitrate: 4976642 kb/s
    Stream #0:0: Video: rawvideo (I420 / 0x30323449), yuv420p(progressive), 3840x2160, SAR 1:1 DAR 16:9, 50 fps, 50 tbr, 50 tbn, 50 tbc
[libx264 @ 0x2d301c0] using SAR=1/1
[libx264 @ 0x2d301c0] DPB size (16 frames, 518400 mbs) > level limit (5 frames, 184320 mbs)
[libx264 @ 0x2d301c0] using cpu capabilities: MMX2 SSE2Fast SSSE3 SSE4.2 AVX FMA3 AVX2 LZCNT BMI2
[libx264 @ 0x2d301c0] profile High, level 5.2
[libx264 @ 0x2d301c0] 264 - core 148 - H.264/MPEG-4 AVC codec - Copyleft 2003-2016 - http://www.videolan.org/x264.html - options: cabac=1 ref=16 deblock=1:0:0 analyse=0x3:0x133 me=umh subme=10 psy=1 psy_rd=1.00:0.00 mixed_ref=1 me_range=24 chroma_me=1 trellis=2 8x8dct=1 cqm=0 deadzone=21,11 fast_pskip=1 chroma_qp_offset=-2 threads=6 lookahead_threads=1 sliced_threads=0 nr=0 decimate=1 interlaced=0 bluray_compat=0 constrained_intra=0 bframes=8 b_pyramid=2 b_adapt=2 b_bias=0 direct=3 weightb=1 open_gop=0 weightp=2 keyint=250 keyint_min=25 scenecut=40 intra_refresh=0 rc_lookahead=60 rc=abr mbtree=1 bitrate=4000 ratetol=1.0 qcomp=0.60 qpmin=0 qpmax=69 qpstep=4 ip_ratio=1.40 aq=1:1.00
Output #0, matroska, to 'Output/x264/encoded/crowd_run_2160p50veryslow4000k.mkv':
  Metadata:
    encoder         : Lavf57.57.100
    Stream #0:0: Video: h264 (libx264) (H264 / 0x34363248), yuv420p, 3840x2160 [SAR 1:1 DAR 16:9], q=-1--1, 4000 kb/s, 50 fps, 1k tbn, 50 tbc
    Metadata:
      encoder         : Lavc57.66.101 libx264
    Side data:
      cpb: bitrate max/min/avg: 0/0/4000000 buffer size: 0 vbv_delay: -1
Stream mapping:
  Stream #0:0 -> #0:0 (rawvideo (native) -> h264 (libx264))
Press [q] to stop, [?] for help
frame=   19 fps=0.0 q=0.0 size=       0kB time=00:00:00.00 bitrate=N/A speed=   0x    frame=   23 fps= 22 q=0.0 size=       0kB time=00:00:00.00 bitrate=N/A speed=   0x    frame=   34 fps= 21 q=0.0 size=       0kB time=00:00:00.00 bitrate=N/A speed=   0x    frame=   43 fps= 20 q=0.0 size=       0kB time=00:00:00.00 bitrate=N/A speed=   0x    frame=   48 fps= 18 q=0.0 size=       0kB time=00:00:00.00 bitrate=N/A speed=   0x    frame=   57 fps= 18 q=0.0 size=       0kB time=00:00:00.00 bitrate=N/A speed=   0x    frame=   66 fps= 18 q=0.0 size=       0kB time=00:00:00.00 bitrate=N/A speed=   0x    frame=   70 fps= 16 q=0.0 size=       0kB time=00:00:00.00 bitrate=N/A speed=   0x    frame=   72 fps=6.5 q=0.0 size=       0kB time=00:00:00.00 bitrate=N/A speed=   0x    frame=   77 fps=6.4 q=50.0 size=       1kB time=-00:00:00.01 bitrate=N/A speed=N/A    frame=   78 fps=6.1 q=46.0 size=       1kB time=00:00:00.00 bitrate=5888.0kbits/s speed=7.78e-05x    frame=   82 fps=5.8 q=54.0 size=       1kB time=00:00:00.08 bitrate=  72.7kbits/s speed=0.00568x    frame=   86 fps=5.4 q=58.0 size=       1kB time=00:00:00.16 bitrate=  36.6kbits/s speed=0.0101x    frame=   90 fps=5.1 q=57.0 size=       1kB time=00:00:00.24 bitrate=  24.4kbits/s speed=0.0137x    frame=   94 fps=4.9 q=57.0 size=       1kB time=00:00:00.32 bitrate=  18.3kbits/s speed=0.0168x    frame=   98 fps=4.7 q=57.0 size=       1kB time=00:00:00.40 bitrate=  14.7kbits/s speed=0.0194x    frame=  100 fps=4.6 q=57.0 size=       1kB time=00:00:00.44 bitrate=  13.4kbits/s speed=0.0205x    frame=  102 fps=4.6 q=57.0 size=       1kB time=00:00:00.48 bitrate=  12.2kbits/s speed=0.0217x    frame=  103 fps=4.4 q=57.0 size=       1kB time=00:00:00.50 bitrate=  11.8kbits/s speed=0.0214x    frame=  104 fps=4.3 q=57.0 size=       1kB time=00:00:00.52 bitrate=  11.3kbits/s speed=0.0217x    frame=  107 fps=4.2 q=56.0 size=       1kB time=00:00:00.58 bitrate=  10.1kbits/s speed=0.0226x    frame=  108 fps=4.1 q=56.0 size=       1kB time=00:00:00.60 bitrate=   9.8kbits/s speed=0.0227x    frame=  110 fps=4.1 q=56.0 size=       1kB time=00:00:00.64 bitrate=   9.2kbits/s speed=0.0236x    frame=  112 fps=3.9 q=56.0 size=       1kB time=00:00:00.68 bitrate=   8.6kbits/s speed=0.0238x    frame=  114 fps=3.9 q=56.0 size=       1kB time=00:00:00.72 bitrate=   8.2kbits/s speed=0.0246x    frame=  115 fps=3.8 q=56.0 size=       1kB time=00:00:00.74 bitrate=   7.9kbits/s speed=0.0244x    frame=  116 fps=3.8 q=56.0 size=       1kB time=00:00:00.76 bitrate=   7.7kbits/s speed=0.0246x    frame=  118 fps=3.7 q=56.0 size=       1kB time=00:00:00.80 bitrate=   7.4kbits/s speed=0.0253x    frame=  119 fps=3.7 q=56.0 size=       1kB time=00:00:00.82 bitrate=   7.2kbits/s speed=0.0253x    frame=  121 fps=3.6 q=56.0 size=       1kB time=00:00:00.86 bitrate=   6.8kbits/s speed=0.0258x    frame=  122 fps=3.6 q=56.0 size=       1kB time=00:00:00.88 bitrate=   6.7kbits/s speed=0.026x    frame=  124 fps=3.5 q=56.0 size=       1kB time=00:00:00.92 bitrate=   6.4kbits/s speed=0.0263x    frame=  125 fps=3.5 q=56.0 size=       1kB time=00:00:00.94 bitrate=   6.3kbits/s speed=0.0262x    frame=  128 fps=3.5 q=56.0 size=       1kB time=00:00:01.00 bitrate=   5.9kbits/s speed=0.027x    frame=  129 fps=3.4 q=56.0 size=       1kB time=00:00:01.02 bitrate=   5.8kbits/s speed=0.027x    frame=  131 fps=3.3 q=55.0 size=       1kB time=00:00:01.06 bitrate=   5.5kbits/s speed=0.027x    frame=  132 fps=3.3 q=56.0 size=       1kB time=00:00:01.08 bitrate=   5.4kbits/s speed=0.027x    frame=  135 fps=3.3 q=55.0 size=       1kB time=00:00:01.14 bitrate=   5.2kbits/s speed=0.0279x    frame=  137 fps=3.3 q=55.0 size=       1kB time=00:00:01.18 bitrate=   5.0kbits/s speed=0.0282x    frame=  138 fps=3.2 q=55.0 size=       1kB time=00:00:01.20 bitrate=   4.9kbits/s speed=0.0276x    frame=  142 fps=3.2 q=55.0 size=       1kB time=00:00:01.28 bitrate=   4.6kbits/s speed=0.0288x    frame=  144 fps=3.1 q=55.0 size=       1kB time=00:00:01.32 bitrate=   4.5kbits/s speed=0.0287x    frame=  145 fps=3.1 q=55.0 size=       1kB time=00:00:01.34 bitrate=   4.4kbits/s speed=0.0285x    frame=  147 fps=3.1 q=55.0 size=       1kB time=00:00:01.38 bitrate=   4.3kbits/s speed=0.0287x    frame=  150 fps=3.0 q=55.0 size=       1kB time=00:00:01.44 bitrate=   4.1kbits/s speed=0.0289x    frame=  151 fps=3.0 q=55.0 size=       1kB time=00:00:01.46 bitrate=   4.0kbits/s speed=0.0287x    frame=  156 fps=3.0 q=55.0 size=       1kB time=00:00:01.56 bitrate=   3.8kbits/s speed=0.0296x    frame=  157 fps=2.9 q=55.0 size=       1kB time=00:00:01.58 bitrate=   3.7kbits/s speed=0.0292x    frame=  160 fps=2.9 q=55.0 size=       1kB time=00:00:01.64 bitrate=   3.6kbits/s speed=0.0301x    frame=  161 fps=2.9 q=55.0 size=       1kB time=00:00:01.66 bitrate=   3.5kbits/s speed=0.0302x    frame=  162 fps=2.9 q=55.0 size=       1kB time=00:00:01.68 bitrate=   3.5kbits/s speed=0.0302x    frame=  163 fps=2.9 q=55.0 size=       1kB time=00:00:01.70 bitrate=   3.5kbits/s speed=0.03x    frame=  164 fps=2.9 q=55.0 size=       1kB time=00:00:01.72 bitrate=   3.4kbits/s speed=0.0301x    frame=  165 fps=2.8 q=55.0 size=       1kB time=00:00:01.74 bitrate=   3.4kbits/s speed=0.0299x    frame=  168 fps=2.9 q=55.0 size=       1kB time=00:00:01.80 bitrate=   3.3kbits/s speed=0.0306x    frame=  169 fps=2.8 q=55.0 size=       1kB time=00:00:01.82 bitrate=   3.2kbits/s speed=0.0301x    frame=  172 fps=2.8 q=55.0 size=       1kB time=00:00:01.88 bitrate=   3.1kbits/s speed=0.0303x    frame=  173 fps=2.8 q=55.0 size=       1kB time=00:00:01.90 bitrate=   3.1kbits/s speed=0.0303x    frame=  174 fps=2.8 q=55.0 size=       1kB time=00:00:01.92 bitrate=   3.1kbits/s speed=0.0304x    frame=  175 fps=2.7 q=55.0 size=       1kB time=00:00:01.94 bitrate=   3.0kbits/s speed=0.0304x    frame=  178 fps=2.7 q=55.0 size=       1kB time=00:00:02.00 bitrate=   2.9kbits/s speed=0.0308x    frame=  179 fps=2.7 q=54.0 size=       1kB time=00:00:02.02 bitrate=   2.9kbits/s speed=0.0305x    frame=  181 fps=2.7 q=54.0 size=       1kB time=00:00:02.06 bitrate=   2.9kbits/s speed=0.0309x    frame=  183 fps=2.7 q=54.0 size=       1kB time=00:00:02.10 bitrate=   2.8kbits/s speed=0.0309x    frame=  185 fps=2.7 q=54.0 size=       1kB time=00:00:02.14 bitrate=   2.8kbits/s speed=0.031x    frame=  187 fps=2.6 q=54.0 size=       1kB time=00:00:02.18 bitrate=   2.7kbits/s speed=0.0308x    frame=  189 fps=2.7 q=54.0 size=       1kB time=00:00:02.22 bitrate=   2.7kbits/s speed=0.0311x    frame=  191 fps=2.6 q=54.0 size=       1kB time=00:00:02.26 bitrate=   2.6kbits/s speed=0.0313x    frame=  192 fps=2.6 q=54.0 size=       1kB time=00:00:02.28 bitrate=   2.6kbits/s speed=0.0312x    frame=  194 fps=2.6 q=54.0 size=       1kB time=00:00:02.32 bitrate=   2.5kbits/s speed=0.0313x    frame=  196 fps=2.6 q=54.0 size=       1kB time=00:00:02.36 bitrate=   2.5kbits/s speed=0.0316x    frame=  197 fps=2.6 q=54.0 size=       1kB time=00:00:02.38 bitrate=   2.5kbits/s speed=0.0313x    frame=  199 fps=2.6 q=54.0 size=       1kB time=00:00:02.42 bitrate=   2.4kbits/s speed=0.0314x    frame=  201 fps=2.6 q=54.0 size=       1kB time=00:00:02.46 bitrate=   2.4kbits/s speed=0.0316x    frame=  202 fps=2.6 q=54.0 size=       1kB time=00:00:02.48 bitrate=   2.4kbits/s speed=0.0316x    frame=  204 fps=2.6 q=54.0 size=       1kB time=00:00:02.52 bitrate=   2.3kbits/s speed=0.0318x    frame=  205 fps=2.5 q=54.0 size=       1kB time=00:00:02.54 bitrate=   2.3kbits/s speed=0.0315x    frame=  207 fps=2.5 q=54.0 size=       1kB time=00:00:02.58 bitrate=   2.3kbits/s speed=0.0317x    frame=  209 fps=2.5 q=54.0 size=       1kB time=00:00:02.62 bitrate=   2.2kbits/s speed=0.0319x    frame=  211 fps=2.5 q=54.0 size=       1kB time=00:00:02.66 bitrate=   2.2kbits/s speed=0.0317x    frame=  214 fps=2.5 q=54.0 size=       1kB time=00:00:02.72 bitrate=   2.2kbits/s speed=0.0321x    frame=  215 fps=2.5 q=54.0 size=       1kB time=00:00:02.74 bitrate=   2.1kbits/s speed=0.0318x    frame=  217 fps=2.5 q=54.0 size=       1kB time=00:00:02.78 bitrate=   2.1kbits/s speed=0.0317x    frame=  220 fps=2.5 q=54.0 size=       1kB time=00:00:02.84 bitrate=   2.1kbits/s speed=0.032x    frame=  221 fps=2.5 q=54.0 size=       1kB time=00:00:02.86 bitrate=   2.1kbits/s speed=0.032x    frame=  223 fps=2.4 q=54.0 size=       1kB time=00:00:02.90 bitrate=   2.0kbits/s speed=0.0319x    frame=  225 fps=2.5 q=54.0 size=       1kB time=00:00:02.94 bitrate=   2.0kbits/s speed=0.0321x    frame=  227 fps=2.5 q=54.0 size=       1kB time=00:00:02.98 bitrate=   2.0kbits/s speed=0.0322x    frame=  229 fps=2.4 q=54.0 size=       1kB time=00:00:03.02 bitrate=   1.9kbits/s speed=0.0321x    frame=  230 fps=2.4 q=54.0 size=       1kB time=00:00:03.04 bitrate=   1.9kbits/s speed=0.032x    frame=  232 fps=2.4 q=54.0 size=       1kB time=00:00:03.08 bitrate=   1.9kbits/s speed=0.0323x    frame=  235 fps=2.4 q=54.0 size=       1kB time=00:00:03.14 bitrate=   1.9kbits/s speed=0.0322x    frame=  236 fps=2.4 q=54.0 size=       1kB time=00:00:03.16 bitrate=   1.9kbits/s speed=0.0322x    frame=  238 fps=2.4 q=54.0 size=       1kB time=00:00:03.20 bitrate=   1.8kbits/s speed=0.0323x    frame=  239 fps=2.4 q=54.0 size=       1kB time=00:00:03.22 bitrate=   1.8kbits/s speed=0.0323x    frame=  240 fps=2.4 q=54.0 size=       1kB time=00:00:03.24 bitrate=   1.8kbits/s speed=0.0322x    frame=  244 fps=2.4 q=54.0 size=       1kB time=00:00:03.32 bitrate=   1.8kbits/s speed=0.0324x    frame=  246 fps=2.4 q=54.0 size=       1kB time=00:00:03.36 bitrate=   1.8kbits/s speed=0.0322x    frame=  250 fps=2.4 q=54.0 size=       1kB time=00:00:03.44 bitrate=   1.7kbits/s speed=0.0324x    frame=  251 fps=2.3 q=54.0 size=       1kB time=00:00:03.46 bitrate=   1.7kbits/s speed=0.0323x    frame=  254 fps=2.4 q=54.0 size=       1kB time=00:00:03.52 bitrate=   1.7kbits/s speed=0.0326x    frame=  256 fps=2.3 q=54.0 size=       1kB time=00:00:03.56 bitrate=   1.7kbits/s speed=0.0327x    frame=  257 fps=2.3 q=54.0 size=       1kB time=00:00:03.58 bitrate=   1.6kbits/s speed=0.0324x    frame=  260 fps=2.3 q=54.0 size=       1kB time=00:00:03.64 bitrate=   1.6kbits/s speed=0.0328x    frame=  261 fps=2.3 q=54.0 size=       1kB time=00:00:03.66 bitrate=   1.6kbits/s speed=0.0327x    frame=  263 fps=2.3 q=54.0 size=       1kB time=00:00:03.70 bitrate=   1.6kbits/s speed=0.0325x    frame=  265 fps=2.3 q=54.0 size=       1kB time=00:00:03.74 bitrate=   1.6kbits/s speed=0.0326x    frame=  269 fps=2.3 q=54.0 size=       1kB time=00:00:03.82 bitrate=   1.5kbits/s speed=0.0325x    frame=  274 fps=2.3 q=54.0 size=       1kB time=00:00:03.92 bitrate=   1.5kbits/s speed=0.033x    frame=  275 fps=2.3 q=54.0 size=       1kB time=00:00:03.94 bitrate=   1.5kbits/s speed=0.0328x    frame=  276 fps=2.3 q=54.0 size=       1kB time=00:00:03.96 bitrate=   1.5kbits/s speed=0.0328x    frame=  277 fps=2.3 q=54.0 size=       1kB time=00:00:03.98 bitrate=   1.5kbits/s speed=0.0328x    frame=  278 fps=2.3 q=54.0 size=       1kB time=00:00:04.00 bitrate=   1.5kbits/s speed=0.0328x    frame=  281 fps=2.3 q=54.0 size=       1kB time=00:00:04.06 bitrate=   1.4kbits/s speed=0.0328x    frame=  283 fps=2.3 q=54.0 size=       1kB time=00:00:04.10 bitrate=   1.4kbits/s speed=0.0328x    frame=  286 fps=2.3 q=54.0 size=       1kB time=00:00:04.16 bitrate=   1.4kbits/s speed=0.0331x    frame=  287 fps=2.3 q=54.0 size=       1kB time=00:00:04.18 bitrate=   1.4kbits/s speed=0.0329x    frame=  289 fps=2.3 q=54.0 size=       1kB time=00:00:04.22 bitrate=   1.4kbits/s speed=0.0329x    frame=  291 fps=2.2 q=54.0 size=       1kB time=00:00:04.26 bitrate=   1.4kbits/s speed=0.0329x    frame=  294 fps=2.3 q=54.0 size=       1kB time=00:00:04.32 bitrate=   1.4kbits/s speed=0.0332x    frame=  295 fps=2.2 q=54.0 size=       1kB time=00:00:04.34 bitrate=   1.4kbits/s speed=0.0328x    frame=  298 fps=2.2 q=54.0 size=       1kB time=00:00:04.40 bitrate=   1.3kbits/s speed=0.033x    frame=  301 fps=2.2 q=54.0 size=       1kB time=00:00:04.46 bitrate=   1.3kbits/s speed=0.033x    frame=  304 fps=2.2 q=54.0 size=       1kB time=00:00:04.52 bitrate=   1.3kbits/s speed=0.033x    frame=  307 fps=2.2 q=54.0 size=       1kB time=00:00:04.58 bitrate=   1.3kbits/s speed=0.0332x    frame=  308 fps=2.2 q=54.0 size=       1kB time=00:00:04.60 bitrate=   1.3kbits/s speed=0.033x    frame=  311 fps=2.2 q=54.0 size=       1kB time=00:00:04.66 bitrate=   1.3kbits/s speed=0.0332x    frame=  313 fps=2.2 q=54.0 size=       1kB time=00:00:04.70 bitrate=   1.3kbits/s speed=0.0333x    frame=  314 fps=2.2 q=54.0 size=       1kB time=00:00:04.72 bitrate=   1.2kbits/s speed=0.033x    frame=  316 fps=2.2 q=54.0 size=       1kB time=00:00:04.76 bitrate=   1.2kbits/s speed=0.0331x    frame=  319 fps=2.2 q=54.0 size=       1kB time=00:00:04.82 bitrate=   1.2kbits/s speed=0.0334x    frame=  320 fps=2.2 q=54.0 size=       1kB time=00:00:04.84 bitrate=   1.2kbits/s speed=0.033x    frame=  323 fps=2.2 q=54.0 size=       1kB time=00:00:04.90 bitrate=   1.2kbits/s speed=0.0332x    frame=  326 fps=2.2 q=54.0 size=    2495kB time=00:00:04.96 bitrate=4120.5kbits/s speed=0.0333x    frame=  332 fps=2.2 q=54.0 size=    2495kB time=00:00:05.08 bitrate=4023.2kbits/s speed=0.034x    frame=  334 fps=2.2 q=54.0 size=    2495kB time=00:00:05.12 bitrate=3991.8kbits/s speed=0.0341x    frame=  337 fps=2.2 q=54.0 size=    2495kB time=00:00:05.18 bitrate=3945.5kbits/s speed=0.0344x    frame=  339 fps=2.2 q=54.0 size=    2495kB time=00:00:05.22 bitrate=3915.3kbits/s speed=0.0345x    frame=  340 fps=2.2 q=54.0 size=    2495kB time=00:00:05.24 bitrate=3900.4kbits/s speed=0.0344x    frame=  344 fps=2.2 q=54.0 size=    2495kB time=00:00:05.32 bitrate=3841.7kbits/s speed=0.0346x    frame=  347 fps=2.2 q=54.0 size=    2495kB time=00:00:05.38 bitrate=3798.9kbits/s speed=0.0348x    frame=  348 fps=2.2 q=54.0 size=    2495kB time=00:00:05.40 bitrate=3784.8kbits/s speed=0.0347x    frame=  350 fps=2.2 q=54.0 size=    2495kB time=00:00:05.44 bitrate=3757.0kbits/s speed=0.0347x    frame=  353 fps=2.2 q=54.0 size=    2495kB time=00:00:05.50 bitrate=3716.0kbits/s speed=0.0348x    frame=  354 fps=2.2 q=54.0 size=    2495kB time=00:00:05.52 bitrate=3702.6kbits/s speed=0.0346x    frame=  356 fps=2.2 q=54.0 size=    2495kB time=00:00:05.56 bitrate=3675.9kbits/s speed=0.0347x    frame=  357 fps=2.2 q=54.0 size=    2495kB time=00:00:05.58 bitrate=3662.8kbits/s speed=0.0347x    frame=  358 fps=2.2 q=54.0 size=    2495kB time=00:00:05.60 bitrate=3649.7kbits/s speed=0.0346x    frame=  360 fps=2.2 q=54.0 size=    2495kB time=00:00:05.64 bitrate=3623.8kbits/s speed=0.0347x    frame=  361 fps=2.2 q=54.0 size=    2495kB time=00:00:05.66 bitrate=3611.0kbits/s speed=0.0346x    frame=  363 fps=2.2 q=54.0 size=    2495kB time=00:00:05.70 bitrate=3585.7kbits/s speed=0.0346x    frame=  365 fps=2.2 q=54.0 size=    2495kB time=00:00:05.74 bitrate=3560.7kbits/s speed=0.0347x    frame=  366 fps=2.2 q=54.0 size=    2495kB time=00:00:05.76 bitrate=3548.3kbits/s speed=0.0346x    frame=  368 fps=2.2 q=54.0 size=    2495kB time=00:00:05.80 bitrate=3523.9kbits/s speed=0.0347x    frame=  369 fps=2.2 q=54.0 size=    2495kB time=00:00:05.82 bitrate=3511.7kbits/s speed=0.0347x    frame=  370 fps=2.2 q=54.0 size=    2495kB time=00:00:05.84 bitrate=3499.7kbits/s speed=0.0346x    frame=  373 fps=2.2 q=54.0 size=    2495kB time=00:00:05.90 bitrate=3464.1kbits/s speed=0.0346x    frame=  374 fps=2.2 q=54.0 size=    2495kB time=00:00:05.92 bitrate=3452.4kbits/s speed=0.0346x    frame=  378 fps=2.2 q=54.0 size=    2495kB time=00:00:06.00 bitrate=3406.4kbits/s speed=0.0349x    frame=  379 fps=2.2 q=54.0 size=    2495kB time=00:00:06.02 bitrate=3395.1kbits/s speed=0.0346x    frame=  380 fps=2.2 q=54.0 size=    2495kB time=00:00:06.04 bitrate=3383.9kbits/s speed=0.0346x    frame=  384 fps=2.2 q=54.0 size=    2495kB time=00:00:06.12 bitrate=3339.6kbits/s speed=0.0349x    frame=  385 fps=2.2 q=54.0 size=    2495kB time=00:00:06.14 bitrate=3328.8kbits/s speed=0.0347x    frame=  386 fps=2.2 q=54.0 size=    2495kB time=00:00:06.16 bitrate=3317.9kbits/s speed=0.0346x    frame=  387 fps=2.2 q=54.0 size=    2495kB time=00:00:06.18 bitrate=3307.2kbits/s speed=0.0346x    frame=  388 fps=2.2 q=54.0 size=    2495kB time=00:00:06.20 bitrate=3296.5kbits/s speed=0.0346x    frame=  391 fps=2.2 q=54.0 size=    2495kB time=00:00:06.26 bitrate=3265.0kbits/s speed=0.0347x    frame=  392 fps=2.2 q=54.0 size=    2495kB time=00:00:06.28 bitrate=3254.6kbits/s speed=0.0348x    frame=  393 fps=2.2 q=54.0 size=    2495kB time=00:00:06.30 bitrate=3244.2kbits/s speed=0.0346x    frame=  395 fps=2.2 q=54.0 size=    2495kB time=00:00:06.34 bitrate=3223.8kbits/s speed=0.0346x    frame=  396 fps=2.2 q=54.0 size=    2495kB time=00:00:06.36 bitrate=3213.6kbits/s speed=0.0346x    frame=  399 fps=2.1 q=54.0 size=    2495kB time=00:00:06.42 bitrate=3183.6kbits/s speed=0.0346x    frame=  402 fps=2.1 q=54.0 size=    2495kB time=00:00:06.48 bitrate=3154.1kbits/s speed=0.0345x    frame=  403 fps=2.1 q=54.0 size=    2495kB time=00:00:06.50 bitrate=3144.4kbits/s speed=0.0345x    frame=  404 fps=2.1 q=54.0 size=    2495kB time=00:00:06.52 bitrate=3134.8kbits/s speed=0.0345x    frame=  406 fps=2.1 q=54.0 size=    2495kB time=00:00:06.56 bitrate=3115.7kbits/s speed=0.0346x    frame=  408 fps=2.1 q=54.0 size=    2495kB time=00:00:06.60 bitrate=3096.8kbits/s speed=0.0345x    frame=  410 fps=2.1 q=54.0 size=    2495kB time=00:00:06.64 bitrate=3078.1kbits/s speed=0.0346x    frame=  411 fps=2.1 q=54.0 size=    2495kB time=00:00:06.66 bitrate=3068.9kbits/s speed=0.0346x    frame=  412 fps=2.1 q=54.0 size=    2495kB time=00:00:06.68 bitrate=3059.7kbits/s speed=0.0345x    frame=  414 fps=2.1 q=54.0 size=    2495kB time=00:00:06.72 bitrate=3041.5kbits/s speed=0.0345x    frame=  415 fps=2.1 q=54.0 size=    2495kB time=00:00:06.74 bitrate=3032.5kbits/s speed=0.0345x    frame=  416 fps=2.1 q=54.0 size=    2495kB time=00:00:06.76 bitrate=3023.5kbits/s speed=0.0345x    frame=  418 fps=2.1 q=54.0 size=    2495kB time=00:00:06.80 bitrate=3005.7kbits/s speed=0.0346x    frame=  419 fps=2.1 q=54.0 size=    2495kB time=00:00:06.82 bitrate=2996.9kbits/s speed=0.0346x    frame=  421 fps=2.1 q=54.0 size=    2495kB time=00:00:06.86 bitrate=2979.4kbits/s speed=0.0344x    frame=  424 fps=2.1 q=54.0 size=    2495kB time=00:00:06.92 bitrate=2953.6kbits/s speed=0.0346x    frame=  425 fps=2.1 q=54.0 size=    2495kB time=00:00:06.94 bitrate=2945.1kbits/s speed=0.0346x    frame=  426 fps=2.1 q=54.0 size=    2495kB time=00:00:06.96 bitrate=2936.6kbits/s speed=0.0347x    frame=  427 fps=2.1 q=54.0 size=    2495kB time=00:00:06.98 bitrate=2928.2kbits/s speed=0.0345x    frame=  428 fps=2.1 q=54.0 size=    2495kB time=00:00:07.00 bitrate=2919.8kbits/s speed=0.0344x    frame=  430 fps=2.1 q=54.0 size=    2495kB time=00:00:07.04 bitrate=2903.3kbits/s speed=0.0345x    frame=  432 fps=2.1 q=54.0 size=    2495kB time=00:00:07.08 bitrate=2886.9kbits/s speed=0.0346x    frame=  433 fps=2.1 q=54.0 size=    2495kB time=00:00:07.10 bitrate=2878.7kbits/s speed=0.0345x    frame=  434 fps=2.1 q=54.0 size=    2495kB time=00:00:07.12 bitrate=2870.6kbits/s speed=0.0344x    frame=  436 fps=2.1 q=54.0 size=    2495kB time=00:00:07.16 bitrate=2854.6kbits/s speed=0.0345x    frame=  437 fps=2.1 q=54.0 size=    2495kB time=00:00:07.18 bitrate=2846.7kbits/s speed=0.0345x    frame=  438 fps=2.1 q=54.0 size=    2495kB time=00:00:07.20 bitrate=2838.8kbits/s speed=0.0345x    frame=  439 fps=2.1 q=54.0 size=    2495kB time=00:00:07.22 bitrate=2830.9kbits/s speed=0.0345x    frame=  441 fps=2.1 q=54.0 size=    2495kB time=00:00:07.26 bitrate=2815.3kbits/s speed=0.0344x    frame=  442 fps=2.1 q=54.0 size=    2495kB time=00:00:07.28 bitrate=2807.6kbits/s speed=0.0344x    frame=  444 fps=2.1 q=54.0 size=    2495kB time=00:00:07.32 bitrate=2792.2kbits/s speed=0.0345x    frame=  445 fps=2.1 q=54.0 size=    2495kB time=00:00:07.34 bitrate=2784.6kbits/s speed=0.0345x    frame=  447 fps=2.1 q=54.0 size=    2495kB time=00:00:07.38 bitrate=2769.5kbits/s speed=0.0345x    frame=  448 fps=2.1 q=54.0 size=    2495kB time=00:00:07.40 bitrate=2762.0kbits/s speed=0.0344x    frame=  450 fps=2.1 q=54.0 size=    2495kB time=00:00:07.44 bitrate=2747.2kbits/s speed=0.0344x    frame=  453 fps=2.1 q=54.0 size=    2495kB time=00:00:07.50 bitrate=2725.2kbits/s speed=0.0345x    frame=  454 fps=2.1 q=54.0 size=    2495kB time=00:00:07.52 bitrate=2718.0kbits/s speed=0.0343x    frame=  458 fps=2.1 q=54.0 size=    2495kB time=00:00:07.60 bitrate=2689.4kbits/s speed=0.0345x    frame=  460 fps=2.1 q=54.0 size=    2495kB time=00:00:07.64 bitrate=2675.3kbits/s speed=0.0344x    frame=  462 fps=2.1 q=54.0 size=    2495kB time=00:00:07.68 bitrate=2661.4kbits/s speed=0.0344x    frame=  464 fps=2.1 q=54.0 size=    2495kB time=00:00:07.72 bitrate=2647.6kbits/s speed=0.0345x    frame=  466 fps=2.1 q=54.0 size=    2495kB time=00:00:07.76 bitrate=2633.9kbits/s speed=0.0344x    frame=  468 fps=2.1 q=54.0 size=    2495kB time=00:00:07.80 bitrate=2620.4kbits/s speed=0.0344x    frame=  469 fps=2.1 q=54.0 size=    2495kB time=00:00:07.82 bitrate=2613.7kbits/s speed=0.0344x    frame=  472 fps=2.1 q=54.0 size=    2495kB time=00:00:07.88 bitrate=2593.8kbits/s speed=0.0344x    frame=  473 fps=2.1 q=54.0 size=    2495kB time=00:00:07.90 bitrate=2587.3kbits/s speed=0.0344x    frame=  474 fps=2.1 q=54.0 size=    2495kB time=00:00:07.92 bitrate=2580.7kbits/s speed=0.0343x    frame=  476 fps=2.1 q=54.0 size=    2495kB time=00:00:07.96 bitrate=2567.8kbits/s speed=0.0344x    frame=  479 fps=2.0 q=54.0 size=    2495kB time=00:00:08.02 bitrate=2548.5kbits/s speed=0.0343x    frame=  480 fps=2.0 q=54.0 size=    2495kB time=00:00:08.04 bitrate=2542.2kbits/s speed=0.0343x    frame=  483 fps=2.0 q=54.0 size=    2495kB time=00:00:08.10 bitrate=2523.4kbits/s speed=0.0343x    frame=  484 fps=2.0 q=54.0 size=    2495kB time=00:00:08.12 bitrate=2517.2kbits/s speed=0.0343x    frame=  486 fps=2.0 q=54.0 size=    2495kB time=00:00:08.16 bitrate=2504.8kbits/s speed=0.0344x    frame=  487 fps=2.0 q=54.0 size=    2495kB time=00:00:08.18 bitrate=2498.7kbits/s speed=0.0343x    frame=  489 fps=2.0 q=54.0 size=    2495kB time=00:00:08.22 bitrate=2486.5kbits/s speed=0.0343x    frame=  491 fps=2.0 q=54.0 size=    2495kB time=00:00:08.26 bitrate=2474.5kbits/s speed=0.0342x    frame=  494 fps=2.0 q=54.0 size=    2495kB time=00:00:08.32 bitrate=2456.7kbits/s speed=0.0344x    frame=  495 fps=2.0 q=54.0 size=    2495kB time=00:00:08.34 bitrate=2450.8kbits/s speed=0.0342x    frame=  498 fps=2.0 q=54.0 size=    2495kB time=00:00:08.40 bitrate=2433.3kbits/s speed=0.0343x    frame=  499 fps=2.0 q=54.0 size=    2495kB time=00:00:08.42 bitrate=2427.5kbits/s speed=0.0342x    frame=  500 fps=2.0 q=54.0 size=    2495kB time=00:00:08.44 bitrate=2421.7kbits/s speed=0.0341x    frame=  500 fps=1.7 q=-1.0 Lsize=    5064kB time=00:00:09.94 bitrate=4173.2kbits/s speed=0.0344x    
video:5060kB audio:0kB subtitle:0kB other streams:0kB global headers:0kB muxing overhead: 0.085674%
bench: utime=1101.048s
bench: maxrss=3499696kB
[libx264 @ 0x2d301c0] frame I:2     Avg QP:43.88  size:140786
[libx264 @ 0x2d301c0] frame P:114   Avg QP:50.59  size: 21289
[libx264 @ 0x2d301c0] frame B:384   Avg QP:50.89  size:  6438
[libx264 @ 0x2d301c0] consecutive B-frames:  0.4%  0.0%  1.2% 60.0% 30.0%  8.4%  0.0%  0.0%  0.0%
[libx264 @ 0x2d301c0] mb I  I16..4: 28.3% 68.6%  3.2%
[libx264 @ 0x2d301c0] mb P  I16..4:  6.6%  5.4%  0.0%  P16..4: 22.4%  0.4%  1.8%  0.0%  0.0%    skip:63.3%
[libx264 @ 0x2d301c0] mb B  I16..4:  0.0%  0.0%  0.0%  B16..8: 19.5%  0.2%  0.0%  direct: 0.1%  skip:80.2%  L0:39.0% L1:61.0% BI: 0.1%
[libx264 @ 0x2d301c0] final ratefactor: 46.31
[libx264 @ 0x2d301c0] 8x8 transform intra:47.9% inter:96.5%
[libx264 @ 0x2d301c0] direct mvs  spatial:99.2% temporal:0.8%
[libx264 @ 0x2d301c0] coded y,uvDC,uvAC intra: 7.4% 30.8% 1.9% inter: 0.2% 2.4% 0.0%
[libx264 @ 0x2d301c0] i16 v,h,dc,p: 56% 23%  4% 17%
[libx264 @ 0x2d301c0] i8 v,h,dc,ddl,ddr,vr,hd,vl,hu:  7%  3% 65%  5%  5%  5%  5%  3%  3%
[libx264 @ 0x2d301c0] i4 v,h,dc,ddl,ddr,vr,hd,vl,hu:  6%  4%  2% 14% 16% 16% 15% 11% 16%
[libx264 @ 0x2d301c0] i8c dc,h,v,p: 81%  8%  8%  2%
[libx264 @ 0x2d301c0] Weighted P-Frames: Y:1.8% UV:0.9%
[libx264 @ 0x2d301c0] ref P L0: 50.2%  0.6% 15.8%  5.9%  4.9%  4.5%  4.4%  1.9%  1.8%  1.7%  1.6%  1.5%  1.4%  1.4%  1.6%  0.9%
[libx264 @ 0x2d301c0] ref B L0: 88.8%  3.9%  2.0%  0.8%  0.8%  0.7%  0.7%  0.3%  0.3%  0.3%  0.3%  0.3%  0.3%  0.3%  0.2%
[libx264 @ 0x2d301c0] ref B L1: 98.9%  1.1%
[libx264 @ 0x2d301c0] kb/s:4144.47
